<?xml version="1.0" encoding="iso-8859-1"?>
<!-- Generator: Adobe Illustrator 19.0.0, SVG Export Plug-In . SVG Version: 6.00 Build 0)  -->
<svg version="1.1" id="Layer_1" xmlns="http://www.w3.org/2000/svg" xmlns:xlink="http://www.w3.org/1999/xlink" x="0px" y="0px"
	 viewBox="0 0 496.158 496.158" style="enable-background:new 0 0 496.158 496.158;" xml:space="preserve">
<defs><style> g {display: none;} g:target {display: inline;} </style></defs>
<g id="play">
	<path style="fill:#FFFFFF;" d="M370.805,235.242L195.856,127.818c-4.776-2.934-11.061-3.061-15.951-0.322
		c-4.979,2.785-8.071,8.059-8.071,13.762v214c0,5.693,3.083,10.963,8.046,13.752c2.353,1.32,5.024,2.02,7.725,2.02
		c2.897,0,5.734-0.797,8.205-2.303l174.947-106.576c4.657-2.836,7.556-7.986,7.565-13.44
		C378.332,243.258,375.452,238.096,370.805,235.242z"/>
</g>
<g id="pause">
	<path style="fill:#FFFFFF;" d="M223.082,121.066h-60.006c-5.523,0-10,4.479-10,10v234.024c0,5.523,4.477,10,10,10h60.006
		c5.523,0,10-4.477,10-10V131.066C233.082,125.545,228.605,121.066,223.082,121.066z"/>
	<path style="fill:#FFFFFF;" d="M333.082,121.066h-60.006c-5.523,0-10,4.479-10,10v234.024c0,5.523,4.477,10,10,10h60.006
		c5.523,0,10-4.477,10-10V131.066C343.082,125.545,338.605,121.066,333.082,121.066z"/>
</g>
<g id="volume">
	<path style="fill:#FFFFFF;" d="M266.494,128.917c-3.409-1.851-7.559-1.688-10.813,0.425l-95.137,61.791H125.38
		c-5.845,0-10.583,4.738-10.583,10.582v92.728c0,5.845,4.738,10.583,10.583,10.583h35.164l95.137,61.79
		c1.748,1.135,3.754,1.708,5.765,1.708c1.733,0,3.471-0.426,5.049-1.283c3.41-1.852,5.534-5.42,5.534-9.301V138.218
		C272.028,134.338,269.904,130.768,266.494,128.917z"/>
	<path style="fill:#FFFFFF;" d="M301.485,322.937c0.894,0,1.801-0.162,2.685-0.504c24.239-9.412,40.524-38.49,40.524-72.361
		c0-29.956-13.2-57.047-33.63-69.018c-3.534-2.072-8.08-0.883-10.153,2.652c-2.072,3.535-0.885,8.082,2.651,10.152
		c15.971,9.358,26.291,31.424,26.291,56.213c0,27.36-12.77,51.426-31.055,58.525c-3.82,1.482-5.715,5.783-4.231,9.604
		C295.707,321.139,298.513,322.937,301.485,322.937z"/>
	<path style="fill:#FFFFFF;" d="M320.856,353.882c0.896,0,1.803-0.163,2.685-0.505c34.046-13.219,57.822-55.979,57.822-103.988
		c0-43.186-18.884-82.155-48.11-99.278c-3.533-2.073-8.081-0.884-10.152,2.652c-2.072,3.534-0.885,8.081,2.651,10.151
		c24.768,14.512,40.771,48.456,40.771,86.475c0,42.027-19.883,79.101-48.353,90.154c-3.82,1.482-5.715,5.782-4.231,9.604
		C315.079,352.084,317.884,353.882,320.856,353.882z"/>
</g>
<g id="muted">
	<path style="fill:#FFFFFF;" d="M259.432,128.917c-3.409-1.851-7.559-1.688-10.813,0.425l-95.137,61.791h-35.164
		c-5.845,0-10.583,4.738-10.583,10.582v92.728c0,5.845,4.738,10.583,10.583,10.583h35.164l95.137,61.79
		c1.748,1.135,3.754,1.708,5.765,1.708c1.733,0,3.471-0.426,5.049-1.283c3.41-1.852,5.534-5.42,5.534-9.301V138.219
		C264.966,134.339,262.842,130.768,259.432,128.917z"/>
	<path style="fill:#FFFFFF;" d="M355.405,248.079l30.384-30.384c3.515-3.516,3.515-9.213,0-12.729
		c-3.515-3.514-9.213-3.514-12.728,0l-30.384,30.385l-30.384-30.385c-3.515-3.514-9.213-3.514-12.728,0
		c-3.515,3.516-3.515,9.213,0,12.729l30.385,30.384l-30.384,30.384c-3.515,3.516-3.515,9.213,0,12.729
		c1.757,1.757,4.061,2.636,6.364,2.636c2.303,0,4.606-0.879,6.364-2.636l30.384-30.385l30.384,30.385
		c1.757,1.757,4.061,2.636,6.364,2.636c2.303,0,4.606-0.879,6.364-2.636c3.515-3.516,3.515-9.213,0-12.729L355.405,248.079z"/>
</g>
<g id="reload">
    <path style="fill:#FFFFFF;" d="M400.813,169.581c-2.502-4.865-14.695-16.012-35.262-5.891
	c-20.564,10.122-10.625,32.351-10.625,32.351c7.666,15.722,11.98,33.371,11.98,52.046c0,65.622-53.201,118.824-118.828,118.824
	c-65.619,0-118.82-53.202-118.82-118.824c0-61.422,46.6-111.946,106.357-118.173v30.793c0,0-0.084,1.836,1.828,2.999
	c1.906,1.163,3.818,0,3.818,0l98.576-58.083c0,0,2.211-1.162,2.211-3.436c0-1.873-2.211-3.205-2.211-3.205l-98.248-57.754
	c0,0-2.24-1.605-4.23-0.826c-1.988,0.773-1.744,3.481-1.744,3.481v32.993c-88.998,6.392-159.23,80.563-159.23,171.21
	c0,94.824,76.873,171.696,171.693,171.696c94.828,0,171.707-76.872,171.707-171.696
	C419.786,219.788,412.933,193.106,400.813,169.581z"/>
</g>
</svg>
