<svg version="1.1" id="Layer_1" xmlns="http://www.w3.org/2000/svg" xmlns:xlink="http://www.w3.org/1999/xlink" x="0px" y="0px"	width="115.899px" height="41.673px" viewBox="0 0 115.899 41.673" enable-background="new 0 0 115.899 41.673" xml:space="preserve">
<defs>
  <style>
    g {display: none;} g:target {display: inline;}
  </style>
</defs>
<view id="top-ornament-view" viewBox="0 0 116 24" />
<view id="middle-ornament-view" viewBox="0 27 115.899 32" />
<view id="bottom-ornament-view" viewBox="81 59 30 44" />
<g id="top-ornament">
	<path fill="#CAA02E" d="M2.873,16.712c0,0,0.06-0.231,0.217-0.666c0.161-0.433,0.416-1.073,0.854-1.857
		c0.441-0.779,1.062-1.718,2.024-2.62c0.949-0.903,2.319-1.725,4.024-2.012c0.428-0.072,0.856-0.11,1.324-0.116
		c0.441,0.015,0.884,0,1.354,0.04c0.948,0.063,1.92,0.222,2.917,0.502c1.964,0.582,4.057,1.833,5.308,3.986
		c1.214,2.113,1.541,5.052,0.167,7.577c-0.682,1.233-1.827,2.341-3.287,2.828c-0.706,0.259-1.52,0.357-2.229,0.364
		c-0.702,0.016-1.398,0.057-2.128,0.053c-1.466-0.011-2.973-0.063-4.497-0.363c-1.517-0.304-2.993-0.777-4.457-1.255
		C3.735,22.938,3,22.701,2.259,22.461L2.01,22.389l-0.076-0.018c0.155-0.105-0.391,0.237,0.638-0.223
		c0.263-1.964-0.305-0.933-0.127-1.231c0.053,0.026,0.274,0.113,0.432,0.167c0.349,0.122,0.718,0.234,1.088,0.34
		c1.487,0.419,3.045,0.742,4.631,0.987c6.354,0.988,13.26,0.705,19.998-1.16c6.856-1.875,13.904-4.117,21.152-6.127
		c7.255-1.989,14.675-3.93,22.337-5.02c1.915-0.274,3.854-0.453,5.811-0.524c1.957-0.063,3.939-0.021,5.943,0.329
		c0.5,0.068,1.002,0.21,1.503,0.335l0.188,0.048l0.13,0.036l0.084,0.028l0.337,0.113c0.243,0.093,0.552,0.208,0.786,0.326
		c0.995,0.463,1.907,1.125,2.652,1.914c1.508,1.587,2.362,3.566,2.844,5.519c0.241,0.983,0.394,1.975,0.465,2.972
		c0.065,0.993,0.085,2.008-0.191,3.16c-0.244,1.088-0.933,2.278-2.018,2.958c-1.075,0.695-2.315,0.843-3.392,0.747
		c-1.097-0.09-2.104-0.42-3.043-0.869c-0.931-0.468-1.801-1.065-2.536-1.902c-0.361-0.426-0.692-0.915-0.911-1.517
		c-0.109-0.299-0.179-0.632-0.202-0.977c0.002-0.191-0.011-0.317,0.018-0.562l0.05-0.334c0.19-1.156,0.701-2.114,1.333-2.941
		c1.297-1.626,2.963-2.645,4.617-3.453c1.67-0.799,3.385-1.376,5.115-1.792c0.865-0.209,1.734-0.382,2.616-0.505
		c0.425-0.06,0.92-0.113,1.326-0.139l1.282-0.085c1.715-0.088,3.412-0.098,5.092,0.021c3.331,0.246,6.699,0.889,9.491,2.744
		c1.385,0.916,2.535,2.211,3.227,3.689c0.692,1.482,0.924,3.078,0.896,4.581c0,0.749-0.133,1.582-0.42,2.315
		c-0.284,0.738-0.716,1.405-1.229,1.958c-1.035,1.11-2.305,1.823-3.56,2.325c-2.531,0.994-5.042,1.337-7.376,1.55
		c-4.683,0.371-8.753,0.091-12.079-0.22c-3.329-0.323-5.918-0.786-7.67-1.146c-0.876-0.183-1.541-0.349-1.985-0.476
		c-0.445-0.126-0.666-0.217-0.666-0.217s0.226,0.08,0.675,0.184s1.12,0.237,2.002,0.375c1.762,0.28,4.364,0.577,7.684,0.791
		c3.314,0.186,7.374,0.308,11.943-0.227c2.27-0.289,4.702-0.73,6.997-1.735c1.135-0.506,2.239-1.164,3.052-2.087
		c0.825-0.934,1.247-2.072,1.215-3.398c-0.005-1.348-0.246-2.705-0.846-3.913c-0.602-1.204-1.552-2.237-2.754-2.996
		c-2.413-1.537-5.542-2.107-8.702-2.259c-1.59-0.077-3.218-0.029-4.856,0.092c-0.811,0.067-1.667,0.136-2.438,0.264
		c-0.799,0.13-1.606,0.309-2.407,0.523c-1.6,0.432-3.193,0.981-4.68,1.718c-1.478,0.732-2.886,1.669-3.808,2.87
		c-0.446,0.587-0.771,1.282-0.864,1.908l-0.046,0.335c0.005-0.021,0.009,0.08,0.005,0.114c0.012,0.104,0.031,0.217,0.081,0.342
		c0.093,0.248,0.271,0.523,0.499,0.785c0.952,1.055,2.574,1.824,4.048,1.934c0.739,0.062,1.435-0.075,1.913-0.402
		c0.481-0.321,0.82-0.842,0.987-1.555c0.164-0.657,0.185-1.531,0.114-2.396c-0.065-0.865-0.203-1.729-0.411-2.567
		c-0.416-1.672-1.144-3.257-2.26-4.414c-0.553-0.582-1.203-1.046-1.925-1.38c-0.189-0.093-0.328-0.139-0.525-0.218l-0.338-0.112
		l-0.084-0.028c0.046,0.015-0.032-0.007-0.043-0.008L84.68,12.61c-0.42-0.1-0.83-0.221-1.273-0.278
		c-3.504-0.569-7.289-0.239-10.989,0.24c-7.444,1.027-14.819,2.918-22.033,4.868c-7.223,1.96-14.287,4.083-21.233,5.907
		c-7.067,1.902-14.292,1.947-20.845,0.798c-1.643-0.293-3.247-0.662-4.812-1.142c-0.393-0.122-0.779-0.249-1.173-0.396
		c-0.212-0.084-0.362-0.13-0.659-0.285c0.145-0.322-0.497,0.682-0.222-1.318c1.074-0.473,0.579-0.116,0.782-0.214
		c0.098,0.02,0.15,0.035,0.21,0.052l0.313,0.099c0.743,0.259,1.48,0.515,2.212,0.77c1.453,0.512,2.858,0.994,4.252,1.306
		c1.391,0.309,2.813,0.39,4.201,0.433c0.699,0.021,1.417-0.004,2.113-0.004c0.687,0.006,1.267-0.062,1.852-0.256
		c1.166-0.344,2.107-1.188,2.716-2.199c1.229-2.07,1.06-4.685,0.037-6.595c-1.046-1.947-2.903-3.167-4.739-3.778
		c-0.929-0.294-1.862-0.477-2.75-0.566c-0.445-0.055-0.905-0.055-1.341-0.083c-0.41-0.008-0.836,0.012-1.233,0.064
		c-1.607,0.216-2.937,0.934-3.901,1.757c-0.975,0.826-1.632,1.719-2.104,2.468c-0.472,0.754-0.757,1.378-0.938,1.802
		C2.943,16.484,2.873,16.712,2.873,16.712z"/>
</g>
<g id="middle-ornament">
	<path fill="#CAA02E" d="M22.211,12.303c0,0-0.789-0.178-2.287-0.395c-1.495-0.211-3.707-0.468-6.514-0.446
		c-1.4,0.026-2.955,0.13-4.584,0.5c-1.605,0.375-3.356,1.024-4.638,2.346c-0.637,0.664-1.106,1.465-1.377,2.423
		c-0.266,0.905-0.332,1.92-0.031,2.83c0.567,1.871,2.54,3.171,4.711,3.865c2.2,0.713,4.674,0.966,7.219,0.94
		c2.551-0.027,5.191-0.35,7.862-0.89c2.672-0.546,5.374-1.322,8.069-2.302c1.356-0.485,2.66-1.042,4.115-1.582
		c1.426-0.519,2.869-0.989,4.329-1.436c5.843-1.771,11.93-3.307,18.148-4.717c6.219-1.409,12.558-2.734,18.929-3.911
		c6.385-1.133,12.751-2.247,19.195-2.809c0.811-0.061,1.623-0.11,2.462-0.116c0.418-0.006,0.849,0.008,1.306,0.049
		c0.228,0.022,0.478,0.059,0.749,0.119l0.59,0.15c1.586,0.412,3.181,0.98,4.651,1.817c1.468,0.836,2.805,1.957,3.834,3.308
		c1.04,1.345,1.748,2.897,2.18,4.468c0.429,1.584,0.609,3.156,0.602,4.747c-0.005,1.603-0.368,3.252-1.042,4.701
		c-1.384,2.951-3.965,4.929-6.549,6.182c-2.618,1.269-5.351,1.936-8.014,2.266c-2.701,0.304-5.233,0.185-7.689,0.019
		c-2.448-0.19-4.793-0.59-6.951-1.3c-1.076-0.36-2.105-0.813-3.022-1.424c-0.454-0.31-0.879-0.662-1.245-1.066
		c-0.191-0.208-0.336-0.401-0.512-0.663c-0.123-0.195-0.253-0.459-0.348-0.74c-0.338-1.063-0.126-2.127,0.228-3.021
		c0.385-0.893,0.944-1.654,1.599-2.25c1.307-1.21,2.889-1.783,4.304-2.002c2.886-0.381,5.088,0.393,6.497,0.887
		c0.707,0.276,1.24,0.506,1.591,0.683c0.353,0.168,0.535,0.255,0.535,0.255s-0.186-0.079-0.546-0.232
		c-0.356-0.161-0.899-0.367-1.613-0.612c-1.418-0.435-3.644-1.096-6.401-0.607c-1.351,0.259-2.827,0.852-3.999,2.012
		c-0.588,0.569-1.075,1.286-1.394,2.094c-0.293,0.806-0.429,1.741-0.13,2.567c0.303,0.838,1.057,1.449,1.891,1.982
		c0.853,0.509,1.83,0.885,2.862,1.173c2.071,0.58,4.358,0.819,6.74,0.951c2.375,0.093,4.917,0.118,7.403-0.232
		c2.503-0.377,5.072-1.088,7.425-2.312c2.336-1.21,4.479-3.013,5.524-5.434c0.516-1.213,0.772-2.508,0.745-3.882
		c-0.01-1.382-0.197-2.817-0.582-4.152c-0.741-2.704-2.532-5.003-5.05-6.359c-1.251-0.688-2.641-1.17-4.107-1.53l-0.558-0.134
		c-0.114-0.022-0.255-0.043-0.421-0.057c-0.33-0.023-0.69-0.034-1.064-0.028c-0.744,0.009-1.517,0.058-2.291,0.12
		c-6.229,0.571-12.606,1.708-18.933,2.863c-6.336,1.166-12.657,2.439-18.849,3.818c-6.184,1.4-12.272,2.806-18.044,4.481
		c-1.441,0.42-2.86,0.861-4.237,1.341c-1.343,0.469-2.753,1.067-4.158,1.517c-2.812,0.936-5.626,1.663-8.409,2.153
		c-2.784,0.485-5.536,0.747-8.212,0.703c-2.67-0.047-5.279-0.375-7.677-1.222c-1.192-0.43-2.335-0.999-3.318-1.793
		c-0.971-0.792-1.79-1.854-2.105-3.075c-0.333-1.221-0.187-2.445,0.184-3.522c0.342-1.043,0.966-2.026,1.732-2.745
		c1.562-1.46,3.475-2.04,5.165-2.362c1.715-0.309,3.305-0.342,4.728-0.306c2.851,0.088,5.049,0.512,6.535,0.803
		C21.435,12.078,22.211,12.303,22.211,12.303z"/>
</g>
<g id="bottom-ornament">
	<path fill="#CAA02E" d="M22.087,0.929c0,0-0.614-0.049-1.757,0.046c-1.135,0.102-2.82,0.333-4.801,1.097
		c-1.97,0.744-4.256,2.098-6.056,4.404c-1.817,2.283-3.005,5.461-3.413,9.03c-0.113,0.893-0.156,1.812-0.198,2.747
		c-0.02,0.473-0.025,0.952-0.027,1.428c0.001,0.447,0.007,1.019,0.073,1.284c-0.008,0.011,0.04,0.019-0.1-0.145
		c-0.075-0.099-0.34-0.202-0.501-0.16c-0.165,0.036-0.185,0.067-0.218,0.086c-0.052,0.045,0.039-0.051,0.083-0.127
		c0.112-0.172,0.233-0.387,0.352-0.601c0.243-0.443,0.487-0.889,0.734-1.339c0.509-0.907,1.065-1.82,1.707-2.705
		c1.275-1.757,2.915-3.461,5.092-4.529c2.162-1.092,4.805-1.306,7.205-0.745c0.303,0.065,0.6,0.146,0.897,0.229l0.441,0.136
		l0.22,0.072c0.008,0.002,0.062,0.021,0.03,0.01c0.011,0.006,0.08,0.019-0.08-0.019c-2.304,2.618,0.148,1.66-0.655,1.869
		c0,0.001,0,0.001-0.006-0.001c-0.384-0.145-0.951-0.28-1.456-0.357c-1.045-0.168-2.126-0.189-3.183-0.04
		c-2.121,0.289-4.118,1.294-5.734,2.801c-1.623,1.505-2.916,3.436-3.931,5.529c-0.5,1.044-0.964,2.166-1.379,3.268
		c-0.403,1.092-0.791,2.261-0.913,3.233c-0.036,0.212,0.007,0.473-0.019,0.355c-0.016-0.042-0.049-0.128-0.171-0.258
		c-0.117-0.125-0.352-0.245-0.519-0.256c-0.344-0.015-0.326,0.05-0.306,0.02c0.17-0.072,0.654-0.593,1.179-1.031
		c0.991-0.846,2.028-1.586,3.11-2.259c2.165-1.334,4.482-2.455,7.046-3.027c1.276-0.287,2.636-0.394,4.012-0.208
		c1.367,0.206,2.766,0.768,3.822,1.719c0.548,0.452,0.981,1,1.374,1.554c0.195,0.278,0.347,0.575,0.518,0.863l0.044,0.081
		c-0.002-0.003,0.007,0.011-0.004-0.003l-0.038-0.049c-0.029-0.024-0.044-0.075-0.252-0.211c-0.033-0.596-2.18,0.382-1.737,0.743
		c-0.044,0.261-0.019,0.264-0.02,0.326c0.033,0.173-0.002-0.004-0.034-0.06c-0.333-0.755-1.042-1.507-1.838-1.962
		c-1.629-0.961-3.773-0.921-5.75-0.413c-2.003,0.49-3.919,1.381-5.701,2.388c-1.784,1.014-3.45,2.158-5.013,3.334
		c-1.392,0.995-1.775,2.795-1.37,4.408c0.39,1.624,1.354,3.055,2.489,4.147c1.15,1.092,2.504,1.856,3.867,2.291
		c2.753,0.887,5.41,0.478,7.386-0.198c2.003-0.684,3.449-1.573,4.402-2.2c0.951-0.64,1.429-1.027,1.429-1.027
		s-0.447,0.419-1.354,1.129c-0.916,0.688-2.291,1.72-4.318,2.528c-1.993,0.8-4.752,1.401-7.788,0.604
		c-1.502-0.392-3.031-1.145-4.376-2.291c-1.337-1.143-2.509-2.705-3.041-4.655c-0.259-0.969-0.342-2.05-0.077-3.127
		c0.251-1.072,0.91-2.108,1.801-2.809c1.544-1.279,3.204-2.54,5.029-3.694c1.829-1.143,3.819-2.212,6.093-2.873
		c1.138-0.315,2.351-0.522,3.62-0.496c1.263,0.025,2.596,0.309,3.792,0.969c1.195,0.673,2.218,1.624,2.877,2.986
		c0.082,0.212,0.16,0.308,0.235,0.77c0.002,0.099,0.031,0.138-0.021,0.435c0.442,0.402-1.752,1.401-1.815,0.777
		c-0.238-0.156-0.279-0.234-0.331-0.286c-0.053-0.062-0.076-0.097-0.104-0.136c-0.052-0.075-0.08-0.124-0.119-0.19l-0.063-0.11
		c-0.135-0.21-0.252-0.438-0.396-0.639c-0.289-0.397-0.592-0.785-0.963-1.08c-1.424-1.27-3.598-1.446-5.74-0.944
		c-2.151,0.487-4.277,1.51-6.248,2.746c-0.983,0.624-1.939,1.31-2.817,2.044c-0.436,0.318-0.728,0.785-1.627,1.325
		c-0.245,0.11-0.527,0.305-1.179,0.25c-0.317-0.033-0.701-0.216-0.921-0.456c-0.231-0.237-0.334-0.464-0.402-0.649
		c-0.212-0.704-0.133-1.073-0.107-1.465c0.201-1.46,0.634-2.623,1.071-3.823c0.454-1.184,0.93-2.323,1.492-3.475
		c1.133-2.275,2.574-4.474,4.547-6.202c1.944-1.739,4.441-2.936,7.024-3.222c1.288-0.148,2.582-0.105,3.833,0.143
		c0.64,0.136,1.208,0.277,1.896,0.572l0.093,0.044c-0.791,0.217,1.755-0.7-0.609,1.912c-0.195-0.045-0.159-0.045-0.184-0.05
		l-0.072-0.026l-0.19-0.069L20.58,12.83c-0.256-0.08-0.512-0.158-0.769-0.222c-2.054-0.539-4.175-0.427-6.009,0.419
		c-1.844,0.829-3.366,2.277-4.6,3.874c-0.62,0.801-1.174,1.646-1.692,2.507c-0.26,0.439-0.517,0.875-0.771,1.307
		c-0.133,0.222-0.264,0.442-0.432,0.684c-0.099,0.126-0.152,0.238-0.398,0.439c-0.085,0.054-0.157,0.123-0.384,0.167
		c-0.224,0.054-0.552-0.073-0.67-0.216C4.63,21.533,4.641,21.417,4.6,21.311c-0.085-0.387-0.072-0.619-0.082-0.891l0.011-0.761
		c0.018-0.496,0.039-0.982,0.072-1.463c0.069-0.973,0.166-1.924,0.32-2.851C5.505,11.643,6.9,8.336,8.918,6.018
		c1.999-2.344,4.435-3.639,6.48-4.312c2.071-0.664,3.779-0.795,4.927-0.833C21.478,0.844,22.087,0.929,22.087,0.929z"/>
</g>
</svg>